<svg xmlns="http://www.w3.org/2000/svg" width="20" height="20" fill="none" viewBox="0 0 20 20"><path fill="#fff" d="M18.3332 13.3333C18.3332 13.7754 18.1576 14.1993 17.845 14.5118C17.5325 14.8244 17.1085 15 16.6665 15H6.6665C5.7415 15 4.99984 14.25 4.99984 13.3333V3.33332C4.99984 2.40832 5.7415 1.66666 6.6665 1.66666H16.6665C17.1085 1.66666 17.5325 1.84225 17.845 2.15481C18.1576 2.46737 18.3332 2.8913 18.3332 3.33332V13.3333ZM13.3332 16.6667V18.3333H3.33317C2.89114 18.3333 2.46722 18.1577 2.15466 17.8452C1.8421 17.5326 1.6665 17.1087 1.6665 16.6667V5.83332H3.33317V16.6667H13.3332ZM10.8332 11.6667L16.6665 5.83332L15.4915 4.65832L10.8332 9.30832L8.25817 6.74166L7.08317 7.91666L10.8332 11.6667Z"/></svg>