<svg width="20" height="20" viewBox="0 0 20 20" fill="none" xmlns="http://www.w3.org/2000/svg">
<path d="M16.6665 13.3333V8.33332H18.3332V13.3333C18.3332 13.7754 18.1576 14.1993 17.845 14.5118C17.5325 14.8244 17.1085 15 16.6665 15H6.6665C5.7415 15 4.99984 14.25 4.99984 13.3333V3.33332C4.99984 2.40832 5.7415 1.66666 6.6665 1.66666H13.3332V3.33332H6.6665V13.3333H16.6665ZM9.0915 5.89999L11.6665 8.47499L17.1582 2.98332L18.3332 4.16666L11.6665 10.8333L7.9165 7.08332L9.0915 5.89999ZM13.3332 16.6667V18.3333H3.33317C2.89114 18.3333 2.46722 18.1577 2.15466 17.8452C1.8421 17.5326 1.6665 17.1087 1.6665 16.6667V5.83332H3.33317V16.6667H13.3332Z" fill="#004182"/>
</svg>
