<svg xmlns="http://www.w3.org/2000/svg" width="20" height="20" fill="none" viewBox="0 0 20 20"><path fill="#004182" d="M9.99984 1.66666C8.90549 1.66666 7.82186 1.88221 6.81081 2.301C5.79976 2.71979 4.8811 3.33362 4.10728 4.10744C2.54448 5.67024 1.6665 7.78986 1.6665 10C1.6665 12.2101 2.54448 14.3298 4.10728 15.8926C4.8811 16.6664 5.79976 17.2802 6.81081 17.699C7.82186 18.1178 8.90549 18.3333 9.99984 18.3333C12.21 18.3333 14.3296 17.4554 15.8924 15.8926C17.4552 14.3298 18.3332 12.2101 18.3332 10C18.3332 8.90565 18.1176 7.82202 17.6988 6.81097C17.28 5.79992 16.6662 4.88126 15.8924 4.10744C15.1186 3.33362 14.1999 2.71979 13.1889 2.301C12.1778 1.88221 11.0942 1.66666 9.99984 1.66666V1.66666ZM5.8915 15.2333C6.24984 14.4833 8.43317 13.75 9.99984 13.75C11.5665 13.75 13.7498 14.4833 14.1082 15.2333C12.9748 16.1333 11.5498 16.6667 9.99984 16.6667C8.44984 16.6667 7.02484 16.1333 5.8915 15.2333ZM15.2998 14.025C14.1082 12.575 11.2165 12.0833 9.99984 12.0833C8.78317 12.0833 5.8915 12.575 4.69984 14.025C3.84984 12.9167 3.33317 11.5167 3.33317 10C3.33317 6.325 6.32484 3.33333 9.99984 3.33333C13.6748 3.33333 16.6665 6.325 16.6665 10C16.6665 11.5167 16.1498 12.9167 15.2998 14.025ZM9.99984 5C8.38317 5 7.08317 6.3 7.08317 7.91667C7.08317 9.53333 8.38317 10.8333 9.99984 10.8333C11.6165 10.8333 12.9165 9.53333 12.9165 7.91667C12.9165 6.3 11.6165 5 9.99984 5ZM9.99984 9.16667C9.66832 9.16667 9.35037 9.03497 9.11595 8.80055C8.88153 8.56613 8.74984 8.24819 8.74984 7.91667C8.74984 7.58514 8.88153 7.2672 9.11595 7.03278C9.35037 6.79836 9.66832 6.66667 9.99984 6.66667C10.3314 6.66667 10.6493 6.79836 10.8837 7.03278C11.1181 7.2672 11.2498 7.58514 11.2498 7.91667C11.2498 8.24819 11.1181 8.56613 10.8837 8.80055C10.6493 9.03497 10.3314 9.16667 9.99984 9.16667Z"/></svg>