<svg width="20" height="20" viewBox="0 0 20 20" fill="none" xmlns="http://www.w3.org/2000/svg">
<path d="M9.99984 16C7.9165 16 6.07484 14.9333 4.99984 13.3333C5.02484 11.6667 8.33317 10.75 9.99984 10.75C11.6665 10.75 14.9748 11.6667 14.9998 13.3333C13.9248 14.9333 12.0832 16 9.99984 16ZM9.99984 4.16667C10.6629 4.16667 11.2988 4.43006 11.7676 4.89891C12.2364 5.36775 12.4998 6.00363 12.4998 6.66667C12.4998 7.32971 12.2364 7.9656 11.7676 8.43444C11.2988 8.90328 10.6629 9.16667 9.99984 9.16667C9.3368 9.16667 8.70091 8.90328 8.23207 8.43444C7.76323 7.9656 7.49984 7.32971 7.49984 6.66667C7.49984 6.00363 7.76323 5.36775 8.23207 4.89891C8.70091 4.43006 9.3368 4.16667 9.99984 4.16667V4.16667ZM9.99984 1.66667C8.90549 1.66667 7.82186 1.88222 6.81081 2.30101C5.79976 2.7198 4.8811 3.33363 4.10728 4.10745C2.54448 5.67025 1.6665 7.78987 1.6665 10C1.6665 12.2101 2.54448 14.3298 4.10728 15.8926C4.8811 16.6664 5.79976 17.2802 6.81081 17.699C7.82186 18.1178 8.90549 18.3333 9.99984 18.3333C12.21 18.3333 14.3296 17.4554 15.8924 15.8926C17.4552 14.3298 18.3332 12.2101 18.3332 10C18.3332 5.39167 14.5832 1.66667 9.99984 1.66667Z" fill="white"/>
</svg>
