<svg width="20" height="20" viewBox="0 0 20 20" fill="none" xmlns="http://www.w3.org/2000/svg">
<path d="M15.8333 2.50001H12.35C12 1.53334 11.0833 0.833344 10 0.833344C8.91667 0.833344 8 1.53334 7.65 2.50001H4.16667C3.25 2.50001 2.5 3.25001 2.5 4.16668V15.8333C2.5 16.75 3.25 17.5 4.16667 17.5H15.8333C16.75 17.5 17.5 16.75 17.5 15.8333V4.16668C17.5 3.25001 16.75 2.50001 15.8333 2.50001ZM10 2.50001C10.4583 2.50001 10.8333 2.87501 10.8333 3.33334C10.8333 3.79168 10.4583 4.16668 10 4.16668C9.54167 4.16668 9.16667 3.79168 9.16667 3.33334C9.16667 2.87501 9.54167 2.50001 10 2.50001ZM5.83333 5.83334H14.1667V4.16668H15.8333V15.8333H4.16667V4.16668H5.83333V5.83334ZM10 14.1667V12.5H14.1667V14.1667H10ZM10 9.16668V7.50001H14.1667V9.16668H10ZM6.66667 10V7.50001H5.83333V6.66668H7.5V10H6.66667ZM7.70833 11.6667C8.05 11.6667 8.33333 11.95 8.33333 12.2917C8.33333 12.4583 8.26667 12.6167 8.15833 12.725L6.76667 14.1667H8.33333V15H5.83333V14.2333L7.5 12.5H5.83333V11.6667H7.70833Z" fill="#004182"/>
</svg>
