<svg width="20" height="20" viewBox="0 0 20 20" fill="none" xmlns="http://www.w3.org/2000/svg">
<path d="M5 18.3333C4.33696 18.3333 3.70107 18.0699 3.23223 17.6011C2.76339 17.1323 2.5 16.4964 2.5 15.8333C2.5 15.3333 2.65 14.8667 2.91667 14.475L7.5 6.50832V4.99999C7.27899 4.99999 7.06702 4.91219 6.91074 4.75591C6.75446 4.59963 6.66667 4.38767 6.66667 4.16666V3.33332C6.66667 2.8913 6.84226 2.46737 7.15482 2.15481C7.46738 1.84225 7.89131 1.66666 8.33333 1.66666H11.6667C12.1087 1.66666 12.5326 1.84225 12.8452 2.15481C13.1577 2.46737 13.3333 2.8913 13.3333 3.33332V4.16666C13.3333 4.38767 13.2455 4.59963 13.0893 4.75591C12.933 4.91219 12.721 4.99999 12.5 4.99999V6.50832L17.0833 14.475C17.35 14.8667 17.5 15.3333 17.5 15.8333C17.5 16.4964 17.2366 17.1323 16.7678 17.6011C16.2989 18.0699 15.663 18.3333 15 18.3333H5Z" fill="white"/>
</svg>
