<svg xmlns="http://www.w3.org/2000/svg" width="199" height="35" fill="none" viewBox="0 0 199 35"><path fill="url(#paint0_linear)" d="M12.88 34.336C10.544 34.336 8.432 33.936 6.544 33.136C4.688 32.336 3.216 31.184 2.128 29.68C1.04 28.176 0.48 26.4 0.448 24.352H7.648C7.744 25.728 8.224 26.816 9.088 27.616C9.984 28.416 11.2 28.816 12.736 28.816C14.304 28.816 15.536 28.448 16.432 27.712C17.328 26.944 17.776 25.952 17.776 24.736C17.776 23.744 17.472 22.928 16.864 22.288C16.256 21.648 15.488 21.152 14.56 20.8C13.664 20.416 12.416 20 10.816 19.552C8.64 18.912 6.864 18.288 5.488 17.68C4.144 17.04 2.976 16.096 1.984 14.848C1.024 13.568 0.544 11.872 0.544 9.76C0.544 7.776 1.04 6.048 2.032 4.576C3.024 3.104 4.416 1.984 6.208 1.216C8 0.415999 10.048 0.0159998 12.352 0.0159998C15.808 0.0159998 18.608 0.863999 20.752 2.56C22.928 4.224 24.128 6.56 24.352 9.568H16.96C16.896 8.416 16.4 7.472 15.472 6.736C14.576 5.968 13.376 5.584 11.872 5.584C10.56 5.584 9.504 5.92 8.704 6.592C7.936 7.264 7.552 8.24 7.552 9.52C7.552 10.416 7.84 11.168 8.416 11.776C9.024 12.352 9.76 12.832 10.624 13.216C11.52 13.568 12.768 13.984 14.368 14.464C16.544 15.104 18.32 15.744 19.696 16.384C21.072 17.024 22.256 17.984 23.248 19.264C24.24 20.544 24.736 22.224 24.736 24.304C24.736 26.096 24.272 27.76 23.344 29.296C22.416 30.832 21.056 32.064 19.264 32.992C17.472 33.888 15.344 34.336 12.88 34.336ZM46.114 34.336C42.978 34.336 40.098 33.6 37.474 32.128C34.85 30.656 32.77 28.624 31.234 26.032C29.698 23.408 28.93 20.448 28.93 17.152C28.93 13.888 29.698 10.96 31.234 8.368C32.77 5.744 34.85 3.696 37.474 2.224C40.098 0.751999 42.978 0.0159998 46.114 0.0159998C49.282 0.0159998 52.162 0.751999 54.754 2.224C57.378 3.696 59.442 5.744 60.946 8.368C62.482 10.96 63.25 13.888 63.25 17.152C63.25 20.448 62.482 23.408 60.946 26.032C59.442 28.624 57.378 30.656 54.754 32.128C52.13 33.6 49.25 34.336 46.114 34.336ZM46.114 28.336C48.13 28.336 49.906 27.888 51.442 26.992C52.978 26.064 54.178 24.752 55.042 23.056C55.906 21.36 56.338 19.392 56.338 17.152C56.338 14.912 55.906 12.96 55.042 11.296C54.178 9.6 52.978 8.304 51.442 7.408C49.906 6.512 48.13 6.064 46.114 6.064C44.098 6.064 42.306 6.512 40.738 7.408C39.202 8.304 38.002 9.6 37.138 11.296C36.274 12.96 35.842 14.912 35.842 17.152C35.842 19.392 36.274 21.36 37.138 23.056C38.002 24.752 39.202 26.064 40.738 26.992C42.306 27.888 44.098 28.336 46.114 28.336ZM66.6175 17.2C66.6175 13.904 67.3535 10.96 68.8255 8.368C70.3295 5.744 72.3615 3.712 74.9215 2.272C77.5135 0.799999 80.4095 0.0639992 83.6095 0.0639992C87.3535 0.0639992 90.6335 1.024 93.4495 2.944C96.2655 4.864 98.2335 7.52 99.3535 10.912H91.6255C90.8575 9.312 89.7695 8.112 88.3615 7.312C86.9855 6.512 85.3855 6.112 83.5615 6.112C81.6095 6.112 79.8655 6.576 78.3295 7.504C76.8255 8.4 75.6415 9.68 74.7775 11.344C73.9455 13.008 73.5295 14.96 73.5295 17.2C73.5295 19.408 73.9455 21.36 74.7775 23.056C75.6415 24.72 76.8255 26.016 78.3295 26.944C79.8655 27.84 81.6095 28.288 83.5615 28.288C85.3855 28.288 86.9855 27.888 88.3615 27.088C89.7695 26.256 90.8575 25.04 91.6255 23.44H99.3535C98.2335 26.864 96.2655 29.536 93.4495 31.456C90.6655 33.344 87.3855 34.288 83.6095 34.288C80.4095 34.288 77.5135 33.568 74.9215 32.128C72.3615 30.656 70.3295 28.624 68.8255 26.032C67.3535 23.44 66.6175 20.496 66.6175 17.2ZM111.813 0.495999V34H105.093V0.495999H111.813ZM125.173 5.92V14.32H136.453V19.648H125.173V28.528H137.893V34H118.453V0.447997H137.893V5.92H125.173ZM166.8 0.495999V5.92H157.872V34H151.152V5.92H142.224V0.495999H166.8ZM198.343 0.495999L187.015 22.336V34H180.295V22.336L168.919 0.495999H176.503L183.703 15.808L190.855 0.495999H198.343Z"/><defs><linearGradient id="paint0_linear" x1="98.5" x2="98.5" y1="-19" y2="53" gradientUnits="userSpaceOnUse"><stop offset=".078" stop-color="#252525"/><stop offset="1" stop-color="#E14B8A"/></linearGradient></defs></svg>